<?xml version="1.0" encoding="UTF-8"?>
<svg width="16px" height="16px" viewBox="0 0 16 16" version="1.1" xmlns="http://www.w3.org/2000/svg" xmlns:xlink="http://www.w3.org/1999/xlink">
    <!-- Generator: Sketch 61 (89581) - https://sketch.com -->
    <title>0: Atoms / Colours / Blue 500</title>
    <desc>Created with Sketch.</desc>
    <defs>
        <path d="M14,2 L14,0 L12,0 L12,2 L4,2 L4,0 L2,0 L2,2 L0,2 L0,16 L16,16 L16,2 L14,2 Z M3,15 L1,15 L1,13 L3,13 L3,15 Z M3,12 L1,12 L1,10 L3,10 L3,12 Z M3,9 L1,9 L1,7 L3,7 L3,9 Z M3,6 L1,6 L1,4 L3,4 L3,6 Z M6,15 L4,15 L4,13 L6,13 L6,15 Z M6,12 L4,12 L4,10 L6,10 L6,12 Z M6,9 L4,9 L4,7 L6,7 L6,9 Z M6,6 L4,6 L4,4 L6,4 L6,6 Z M9,15 L7,15 L7,13 L9,13 L9,15 Z M9,12 L7,12 L7,10 L9,10 L9,12 Z M9,9 L7,9 L7,7 L9,7 L9,9 Z M9,6 L7,6 L7,4 L9,4 L9,6 Z M12,15 L10,15 L10,13 L12,13 L12,15 Z M12,12 L10,12 L10,10 L12,10 L12,12 Z M12,9 L10,9 L10,7 L12,7 L12,9 Z M12,6 L10,6 L10,4 L12,4 L12,6 Z M15,15 L13,15 L13,13 L15,13 L15,15 Z M15,12 L13,12 L13,10 L15,10 L15,12 Z M15,9 L13,9 L13,7 L15,7 L15,9 Z M15,6 L13,6 L13,4 L15,4 L15,6 Z" id="path-1"></path>
    </defs>
    <g id="Symbols" stroke="none" stroke-width="1" fill="none" fill-rule="evenodd">
        <g id="0:-Basics-/-Icons-/-Calendar">
            <g id="0:-Atoms-/-Colours-/-Blue-500">
                <mask id="mask-2" fill="white">
                    <use xlink:href="#path-1"></use>
                </mask>
                <use id="Mask" fill="#FFFFFF" fill-rule="nonzero" xlink:href="#path-1"></use>
                <g id="0:-Basics-/-Colours-/-Blue-500" mask="url(#mask-2)" fill="#FFFFFF">
                    <rect id="Rectangle" x="0" y="0" width="16" height="16"></rect>
                </g>
            </g>
        </g>
    </g>
</svg>