<?xml version="1.0" encoding="UTF-8"?>
<svg width="16px" height="16px" viewBox="0 0 16 16" version="1.1" xmlns="http://www.w3.org/2000/svg" xmlns:xlink="http://www.w3.org/1999/xlink">
    <!-- Generator: Sketch 61 (89581) - https://sketch.com -->
    <title>0: Atoms / Colours / Blue 500</title>
    <desc>Created with Sketch.</desc>
    <defs>
        <path d="M10.293,11.707 L7,8.414 L7,4 L9,4 L9,7.586 L11.707,10.293 L10.293,11.707 Z M8,0 C3.582,0 0,3.582 0,8 C0,12.418 3.582,16 8,16 C12.418,16 16,12.418 16,8 C16,3.582 12.418,0 8,0 Z M8,14 C4.686,14 2,11.314 2,8 C2,4.686 4.686,2 8,2 C11.314,2 14,4.686 14,8 C14,11.314 11.314,14 8,14 Z" id="path-1"></path>
    </defs>
    <g id="Symbols" stroke="none" stroke-width="1" fill="none" fill-rule="evenodd">
        <g id="0:-Basics-/-Icons-/-Time">
            <g id="0:-Atoms-/-Colours-/-Blue-500">
                <mask id="mask-2" fill="white">
                    <use xlink:href="#path-1"></use>
                </mask>
                <use id="Mask" fill="#222" fill-rule="nonzero" xlink:href="#path-1"></use>
                <g id="0:-Basics-/-Colours-/-Blue-500" mask="url(#mask-2)" fill="#222">
                    <rect id="Rectangle" x="0" y="0" width="16" height="16"></rect>
                </g>
            </g>
        </g>
    </g>
</svg>