<?xml version="1.0" encoding="UTF-8"?>
<svg width="16px" height="16px" viewBox="0 0 16 16" version="1.1" xmlns="http://www.w3.org/2000/svg" xmlns:xlink="http://www.w3.org/1999/xlink">
    <!-- Generator: Sketch 61 (89581) - https://sketch.com -->
    <title>0: Atoms / Colours / Blue 500</title>
    <desc>Created with Sketch.</desc>
    <defs>
        <path d="M15.504,13.616 L11.714,10.393 C11.322,10.04 10.903,9.879 10.565,9.894 C11.46,8.846 12,7.487 12,6.001 C12,2.687 9.314,0.001 6,0.001 C2.686,0.001 1.55431223e-13,2.687 1.55431223e-13,6.001 C1.55431223e-13,9.315 2.686,12.001 6,12.001 C7.486,12.001 8.845,11.461 9.893,10.566 C9.877,10.904 10.039,11.323 10.392,11.715 L13.615,15.505 C14.167,16.118 15.068,16.17 15.618,15.62 C16.168,15.07 16.116,14.168 15.503,13.617 L15.504,13.616 Z M6,10 C3.791,10 2,8.209 2,6 C2,3.791 3.791,2 6,2 C8.209,2 10,3.791 10,6 C10,8.209 8.209,10 6,10 Z" id="path-1"></path>
    </defs>
    <g id="Symbols" stroke="none" stroke-width="1" fill="none" fill-rule="evenodd">
        <g id="0:-Basics-/-Icons-/-Search">
            <g id="0:-Atoms-/-Colours-/-Blue-500" transform="translate(-0.000000, 0.000000)">
                <mask id="mask-2" fill="white">
                    <use xlink:href="#path-1"></use>
                </mask>
                <use id="Mask" fill="#000000" fill-rule="nonzero" xlink:href="#path-1"></use>
                <g id="0:-Basics-/-Colours-/-Blue-500" mask="url(#mask-2)" fill="#00AEEF">
                    <rect id="Rectangle" x="0" y="0" width="16" height="16"></rect>
                </g>
            </g>
        </g>
    </g>
</svg>
