<?xml version="1.0" encoding="UTF-8"?>
<svg width="16px" height="16px" viewBox="0 0 16 16" version="1.1" xmlns="http://www.w3.org/2000/svg" xmlns:xlink="http://www.w3.org/1999/xlink">
    <!-- Generator: Sketch 61 (89581) - https://sketch.com -->
    <title>0: Atoms / Colours / Blue 500</title>
    <desc>Created with Sketch.</desc>
    <defs>
        <path d="M13.5,11 C12.794,11 12.158,11.293 11.703,11.763 L4.969,8.396 C4.99,8.267 5.001,8.135 5.001,8 C5.001,7.865 4.99,7.733 4.969,7.604 L11.703,4.237 C12.158,4.707 12.794,5 13.5,5 C14.881,5 16,3.881 16,2.5 C16,1.119 14.881,0 13.5,0 C12.119,0 11,1.119 11,2.5 C11,2.635 11.011,2.767 11.031,2.896 L4.297,6.263 C3.842,5.793 3.206,5.5 2.5,5.5 C1.119,5.5 0,6.619 0,8 C0,9.381 1.119,10.5 2.5,10.5 C3.206,10.5 3.843,10.207 4.297,9.737 L11.031,13.104 C11.01,13.233 11,13.365 11,13.5 C11,14.881 12.119,16 13.5,16 C14.881,16 16,14.881 16,13.5 C16,12.119 14.881,11 13.5,11 Z" id="path-1"></path>
    </defs>
    <g id="Symbols" stroke="none" stroke-width="1" fill="none" fill-rule="evenodd">
        <g id="0:-Basics-/-Icons-/-Share">
            <mask id="mask-2" fill="white">
                <use xlink:href="#path-1"></use>
            </mask>
            <use id="Mask" fill="#000000" fill-rule="nonzero" xlink:href="#path-1"></use>
            <g id="0:-Basics-/-Colours-/-Blue-500" mask="url(#mask-2)" fill="#00AEEF">
                <rect id="Rectangle" x="0" y="0" width="16" height="16"></rect>
            </g>
        </g>
    </g>
</svg>
