<?xml version="1.0" encoding="UTF-8"?>
<svg width="16px" height="14px" viewBox="0 0 16 14" version="1.1" xmlns="http://www.w3.org/2000/svg" xmlns:xlink="http://www.w3.org/1999/xlink">
    <!-- Generator: Sketch 61 (89581) - https://sketch.com -->
    <title>0: Atoms / Colours / Blue 500</title>
    <desc>Created with Sketch.</desc>
    <defs>
        <path d="M16,4 L8,0 L0,4 L8,8 L16,4 Z M8,1.328 L13.345,4 L8,6.672 L2.655,4 L8,1.328 Z M14.398,6.199 L16,7 L8,11 L0,7 L1.602,6.199 L8,9.398 L14.398,6.199 Z M14.398,9.199 L16,10 L8,14 L0,10 L1.602,9.199 L8,12.398 L14.398,9.199 Z" id="path-1"></path>
    </defs>
    <g id="Symbols" stroke="none" stroke-width="1" fill="none" fill-rule="evenodd">
        <g id="0:-Basics-/-Icons-/-Stack" transform="translate(0.000000, -1.000000)">
            <g id="0:-Atoms-/-Colours-/-Blue-500" transform="translate(0.000000, 1.000000)">
                <mask id="mask-2" fill="white">
                    <use xlink:href="#path-1"></use>
                </mask>
                <use id="Mask" fill="#000000" fill-rule="nonzero" xlink:href="#path-1"></use>
                <g id="0:-Basics-/-Colours-/-Blue-500" mask="url(#mask-2)" fill="#000000">
                    <g transform="translate(0.000000, -1.000000)" id="Rectangle">
                        <rect x="0" y="0" width="16" height="16"></rect>
                    </g>
                </g>
            </g>
        </g>
    </g>
</svg>